<?xml version="1.0" encoding="UTF-8" standalone="no"?>
<!-- Created with Inkscape (http://www.inkscape.org/) -->

<svg
   width="104.88435mm"
   height="22.094831mm"
   viewBox="0 0 104.88435 22.094832"
   version="1.1"
   id="svg1"
   inkscape:version="1.4.2 (f4327f4, 2025-05-13)"
   sodipodi:docname="법무사신박_text_white.svg"
   xmlns:inkscape="http://www.inkscape.org/namespaces/inkscape"
   xmlns:sodipodi="http://sodipodi.sourceforge.net/DTD/sodipodi-0.dtd"
   xmlns="http://www.w3.org/2000/svg"
   xmlns:svg="http://www.w3.org/2000/svg">
  <sodipodi:namedview
     id="namedview1"
     bordercolor="#000000"
     borderopacity="0.25"
     inkscape:showpageshadow="2"
     inkscape:pageopacity="0.0"
     inkscape:pagecheckerboard="0"
     inkscape:deskcolor="#d1d1d1"
     inkscape:document-units="mm"
     inkscape:zoom="1.0396254"
     inkscape:cx="645.90573"
     inkscape:cy="438.13858"
     inkscape:window-width="2560"
     inkscape:window-height="1369"
     inkscape:window-x="1912"
     inkscape:window-y="-8"
     inkscape:window-maximized="1"
     inkscape:current-layer="layer1"
     pagecolor="#ffffff" />
  <defs
     id="defs1">
    <clipPath
       clipPathUnits="userSpaceOnUse"
       id="clipPath2">
      <path
         d="M 0,595.276 H 595.276 V 0 H 0 Z"
         transform="translate(-323.71091,-323.80351)"
         id="path2" />
    </clipPath>
    <clipPath
       clipPathUnits="userSpaceOnUse"
       id="clipPath4">
      <path
         d="M 0,595.276 H 595.276 V 0 H 0 Z"
         id="path4" />
    </clipPath>
    <clipPath
       clipPathUnits="userSpaceOnUse"
       id="clipPath6">
      <path
         d="M 0,595.276 H 595.276 V 0 H 0 Z"
         transform="translate(-339.97251,-326.65801)"
         id="path6" />
    </clipPath>
    <clipPath
       clipPathUnits="userSpaceOnUse"
       id="clipPath8">
      <path
         d="M 0,595.276 H 595.276 V 0 H 0 Z"
         transform="translate(-258.4735,-417.89401)"
         id="path8" />
    </clipPath>
    <clipPath
       clipPathUnits="userSpaceOnUse"
       id="clipPath10">
      <path
         d="M 0,595.276 H 595.276 V 0 H 0 Z"
         transform="translate(-218.88931,-307.87371)"
         id="path10" />
    </clipPath>
    <clipPath
       clipPathUnits="userSpaceOnUse"
       id="clipPath12">
      <path
         d="M 0,595.276 H 595.276 V 0 H 0 Z"
         transform="translate(-369.10711,-306.47021)"
         id="path12" />
    </clipPath>
    <clipPath
       clipPathUnits="userSpaceOnUse"
       id="clipPath14">
      <path
         d="M 0,595.276 H 595.276 V 0 H 0 Z"
         id="path14" />
    </clipPath>
    <clipPath
       clipPathUnits="userSpaceOnUse"
       id="clipPath16">
      <path
         d="M 0,595.276 H 595.276 V 0 H 0 Z"
         id="path16" />
    </clipPath>
    <clipPath
       clipPathUnits="userSpaceOnUse"
       id="clipPath18">
      <path
         d="M 0,595.276 H 595.276 V 0 H 0 Z"
         transform="translate(-287.07201,-226.38521)"
         id="path18" />
    </clipPath>
    <clipPath
       clipPathUnits="userSpaceOnUse"
       id="clipPath20">
      <path
         d="M 0,595.276 H 595.276 V 0 H 0 Z"
         transform="translate(-317.90671,-193.75801)"
         id="path20" />
    </clipPath>
    <clipPath
       clipPathUnits="userSpaceOnUse"
       id="clipPath22">
      <path
         d="M 0,595.276 H 595.276 V 0 H 0 Z"
         id="path22" />
    </clipPath>
    <clipPath
       clipPathUnits="userSpaceOnUse"
       id="clipPath25">
      <path
         d="M 0,595.276 H 595.276 V 0 H 0 Z"
         transform="translate(-323.71093,-323.80351)"
         id="path25" />
    </clipPath>
    <clipPath
       clipPathUnits="userSpaceOnUse"
       id="clipPath27">
      <path
         d="M 0,595.276 H 595.276 V 0 H 0 Z"
         transform="translate(2.5000002e-6)"
         id="path27" />
    </clipPath>
    <clipPath
       clipPathUnits="userSpaceOnUse"
       id="clipPath29">
      <path
         d="M 0,595.276 H 595.276 V 0 H 0 Z"
         transform="translate(-339.97251,-326.65801)"
         id="path29" />
    </clipPath>
    <clipPath
       clipPathUnits="userSpaceOnUse"
       id="clipPath31">
      <path
         d="M 0,595.276 H 595.276 V 0 H 0 Z"
         transform="translate(-258.47353,-417.89401)"
         id="path31" />
    </clipPath>
    <clipPath
       clipPathUnits="userSpaceOnUse"
       id="clipPath33">
      <path
         d="M 0,595.276 H 595.276 V 0 H 0 Z"
         transform="translate(-218.88928,-307.87371)"
         id="path33" />
    </clipPath>
    <clipPath
       clipPathUnits="userSpaceOnUse"
       id="clipPath35">
      <path
         d="M 0,595.276 H 595.276 V 0 H 0 Z"
         transform="translate(-369.10708,-306.47021)"
         id="path35" />
    </clipPath>
    <clipPath
       clipPathUnits="userSpaceOnUse"
       id="clipPath37">
      <path
         d="M 0,595.276 H 595.276 V 0 H 0 Z"
         transform="translate(2.5000002e-6)"
         id="path37" />
    </clipPath>
    <clipPath
       clipPathUnits="userSpaceOnUse"
       id="clipPath39">
      <path
         d="M 0,595.276 H 595.276 V 0 H 0 Z"
         transform="translate(2.5000002e-6)"
         id="path39" />
    </clipPath>
    <clipPath
       clipPathUnits="userSpaceOnUse"
       id="clipPath41">
      <path
         d="M 0,595.276 H 595.276 V 0 H 0 Z"
         transform="translate(-287.07201,-226.38521)"
         id="path41" />
    </clipPath>
    <clipPath
       clipPathUnits="userSpaceOnUse"
       id="clipPath43">
      <path
         d="M 0,595.276 H 595.276 V 0 H 0 Z"
         transform="translate(-317.90668,-193.75801)"
         id="path43" />
    </clipPath>
    <clipPath
       clipPathUnits="userSpaceOnUse"
       id="clipPath45">
      <path
         d="M 0,595.276 H 595.276 V 0 H 0 Z"
         transform="translate(2.5000002e-6)"
         id="path45" />
    </clipPath>
  </defs>
  <g
     inkscape:label="Layer 1"
     inkscape:groupmode="layer"
     id="layer1"
     transform="translate(65.570441,-32.497358)">
    <path
       id="path36"
       d="m 183.75,192.709 h -21.891 v -4.804 h 21.891 z m -14.561,22.632 H 156.76 v -5.595 h 12.429 z m 0,4.062 v 5.151 c 0,0.989 -0.297,1.486 -0.99,1.881 h 6.586 c 0.892,0 1.189,-0.346 1.189,-1.387 v -5.844 h 7.776 v 5.646 c 0,1.04 0,2.378 -0.644,3.121 h 5.398 c 1.387,0 2.229,-0.694 2.229,-1.783 v -38.729 c 0,-2.624 -1.288,-3.615 -3.071,-3.615 h -29.268 c -2.18,0 -3.517,0.742 -3.517,3.615 v 12.48 c 0,0.991 -0.298,1.486 -0.991,1.882 h 6.785 c 0.892,0 1.189,-0.347 1.189,-1.387 v -3.664 h 21.89 v 18.076 h -7.776 V 209.3 c 0,-2.625 -1.288,-3.616 -3.07,-3.616 H 153.49 c -2.179,0 -3.516,0.743 -3.516,3.616 v 15.254 c 0,0.989 -0.298,1.486 -0.991,1.881 h 6.586 c 0.892,0 1.19,-0.346 1.19,-1.387 v -5.645 z"
       style="fill:#ffffff;fill-opacity:1;fill-rule:nonzero;stroke:none"
       transform="matrix(0.35277776,0,0,-0.35277776,-118.12833,115.93248)"
       clip-path="url(#clipPath37)" />
    <path
       id="path38"
       d="m 208.914,210.884 h 23.425 v 11.342 h -23.425 z m -3.467,-4.358 c -2.179,0 -3.517,0.744 -3.517,3.615 v 14.561 c 0,0.991 -0.296,1.486 -0.989,1.882 h 38.381 v -16.443 c 0,-2.624 -1.287,-3.615 -3.07,-3.615 z m 18.968,-9.41 v -13.321 h -7.527 v 13.321 h -19.413 v 4.358 h 46.354 v -4.358 z"
       style="fill:#ffffff;fill-opacity:1;fill-rule:nonzero;stroke:none"
       transform="matrix(0.35277776,0,0,-0.35277776,-118.12833,115.93248)"
       clip-path="url(#clipPath39)" />
    <path
       id="path40"
       d="m 0,0 v -15.154 h 7.577 v -4.359 H 0 V -42.59 h -7.083 v 6.487 h -1.98 c -8.024,0 -13.966,2.328 -16.492,8.519 -2.724,-5.151 -7.528,-9.261 -16.145,-9.261 v 4.208 c 8.915,0.843 12.332,8.32 12.332,15.156 v 14.56 c 0,0.743 0,1.783 -0.892,2.13 h 6.24 c 1.338,0 2.08,-0.645 2.08,-1.536 v -15.304 c 0,-10.052 5.2,-14.262 13.669,-14.262 h 1.188 v 30.358 c 0,1.04 0,2.378 -0.643,3.12 h 5.497 C -0.842,1.585 0,1.09 0,0"
       style="fill:#ffffff;fill-opacity:1;fill-rule:nonzero;stroke:none"
       transform="matrix(0.35277776,0,0,-0.35277776,-16.855711,36.06881)"
       clip-path="url(#clipPath41)" />
    <path
       id="path42"
       d="m 0,0 c 0,1.251 0,2.364 -0.903,3.407 h 7.785 c 1.877,0 2.92,-0.904 2.92,-2.156 v -12.165 c 0,-1.598 0.625,-2.363 2.502,-2.363 H 40.527 V 9.802 C 29.404,9.802 19.603,10.357 14.042,20.298 10.289,13.833 3.129,8.411 -8.966,8.411 V 14.32 C 3.546,15.503 9.246,22.801 9.246,32.047 v 6.255 c 0,1.043 0,2.503 -1.251,2.989 h 8.481 c 1.876,0 2.919,-0.903 2.919,-2.154 v -7.925 c 0,-14.041 9.384,-15.501 21.132,-15.501 v 22.661 c 0,1.46 0,3.337 -0.903,4.379 H 47.2 c 1.946,0 3.129,-0.973 3.129,-2.503 v -54.36 c 0,-4.03 -1.878,-5.073 -4.935,-5.073 H 4.935 C 1.878,-19.185 0,-18.142 0,-14.112 Z"
       style="fill:#ffffff;fill-opacity:1;fill-rule:nonzero;stroke:none"
       transform="matrix(0.35277776,0,0,-0.35277776,-5.9779227,47.57896)"
       clip-path="url(#clipPath43)" />
    <path
       id="path44"
       d="M 406.809,218.575 H 389.36 v -9.314 h 17.449 z m 19.047,-44.697 v 16.544 h -39.832 v 5.909 h 39.832 v 35.799 c 0,1.46 0,3.337 -0.904,4.379 h 7.578 c 1.946,0 3.127,-0.973 3.127,-2.503 v -13.137 h 10.636 v -6.118 h -10.636 v -40.873 z m -19.047,50.536 v 7.299 c 0,1.39 -0.418,2.085 -1.391,2.642 h 9.246 c 1.251,0 1.668,-0.487 1.668,-1.947 v -23.912 c 0,-3.684 -1.806,-5.075 -4.309,-5.075 h -27.25 c -3.059,0 -4.935,1.043 -4.935,5.075 v 23.217 c 0,1.39 -0.417,2.085 -1.39,2.642 h 9.244 c 1.252,0 1.668,-0.487 1.668,-1.947 v -7.994 z"
       style="fill:#ffffff;fill-opacity:1;fill-rule:nonzero;stroke:none"
       transform="matrix(0.35277776,0,0,-0.35277776,-118.12833,115.93248)"
       clip-path="url(#clipPath45)" />
  </g>
</svg>
