<?xml version="1.0" encoding="UTF-8" standalone="no"?>
<!-- Created with Inkscape (http://www.inkscape.org/) -->

<svg
   width="54.837891mm"
   height="64.371712mm"
   viewBox="0 0 54.837891 64.371713"
   version="1.1"
   id="svg1"
   inkscape:version="1.4.2 (f4327f4, 2025-05-13)"
   sodipodi:docname="테스트_이미지.svg"
   xmlns:inkscape="http://www.inkscape.org/namespaces/inkscape"
   xmlns:sodipodi="http://sodipodi.sourceforge.net/DTD/sodipodi-0.dtd"
   xmlns="http://www.w3.org/2000/svg"
   xmlns:svg="http://www.w3.org/2000/svg">
  <sodipodi:namedview
     id="namedview1"
     bordercolor="#000000"
     borderopacity="0.25"
     inkscape:showpageshadow="2"
     inkscape:pageopacity="0.0"
     inkscape:pagecheckerboard="0"
     inkscape:deskcolor="#d1d1d1"
     inkscape:document-units="mm"
     inkscape:zoom="1.0396254"
     inkscape:cx="395.81564"
     inkscape:cy="560.29796"
     inkscape:window-width="2560"
     inkscape:window-height="1369"
     inkscape:window-x="1912"
     inkscape:window-y="-8"
     inkscape:window-maximized="1"
     inkscape:current-layer="layer1" />
  <defs
     id="defs1">
    <clipPath
       clipPathUnits="userSpaceOnUse"
       id="clipPath2">
      <path
         d="M 0,595.276 H 595.276 V 0 H 0 Z"
         transform="translate(-323.71091,-323.80351)"
         id="path2" />
    </clipPath>
    <clipPath
       clipPathUnits="userSpaceOnUse"
       id="clipPath4">
      <path
         d="M 0,595.276 H 595.276 V 0 H 0 Z"
         id="path4" />
    </clipPath>
    <clipPath
       clipPathUnits="userSpaceOnUse"
       id="clipPath6">
      <path
         d="M 0,595.276 H 595.276 V 0 H 0 Z"
         transform="translate(-339.97251,-326.65801)"
         id="path6" />
    </clipPath>
    <clipPath
       clipPathUnits="userSpaceOnUse"
       id="clipPath8">
      <path
         d="M 0,595.276 H 595.276 V 0 H 0 Z"
         transform="translate(-258.4735,-417.89401)"
         id="path8" />
    </clipPath>
    <clipPath
       clipPathUnits="userSpaceOnUse"
       id="clipPath10">
      <path
         d="M 0,595.276 H 595.276 V 0 H 0 Z"
         transform="translate(-218.88931,-307.87371)"
         id="path10" />
    </clipPath>
    <clipPath
       clipPathUnits="userSpaceOnUse"
       id="clipPath12">
      <path
         d="M 0,595.276 H 595.276 V 0 H 0 Z"
         transform="translate(-369.10711,-306.47021)"
         id="path12" />
    </clipPath>
  </defs>
  <g
     inkscape:label="Layer 1"
     inkscape:groupmode="layer"
     id="layer1"
     transform="translate(-0.31079018,-0.21819653)">
    <path
       id="path1"
       d="m 0,0 c 0,-1.577 -1.278,-2.854 -2.855,-2.854 h -27.03 c -1.576,0 -2.854,1.277 -2.854,2.854 v 23.807 h -40.156 c -1.576,0 -2.854,1.279 -2.854,2.855 v 16.135 h 5.709 v -13.28 h 40.155 c 1.577,0 2.855,-1.279 2.855,-2.855 v -7.547 h 21.321 v 9.259 H 0 Z M 10.552,0 V 89.915 L -27.03,111.976 V 35.914 h -5.709 v 77.253 L -59.528,97.442 V 63.186 l 20.354,-16.935 -0.032,-0.037 h -8.85 l -14.327,11.92 -42.439,-35.312 V -9.383 H 13.407 c 1.576,0 2.855,-1.278 2.855,-2.855 V -31.639 L 43.023,-15.93 V -2.854 H 13.407 c -1.576,0 -2.855,1.277 -2.855,2.854"
       style="fill:#fbce13;fill-opacity:1;fill-rule:nonzero;stroke:none;stroke-width:1.00063;stroke-dasharray:none"
       transform="matrix(0.35277776,0,0,-0.35277776,38.630497,42.092108)"
       clip-path="url(#clipPath2)" />
    <path
       id="path3"
       d="m 296.681,326.658 h 21.321 v 10.552 h -21.321 z"
       style="fill:#fbce13;fill-opacity:1;fill-rule:nonzero;stroke:none;stroke-width:1.00063;stroke-dasharray:none"
       transform="matrix(0.35277776,0,0,-0.35277776,-75.567513,156.32278)"
       clip-path="url(#clipPath4)" />
    <path
       id="path5"
       d="M 0,0 H 26.762 V 68 L 0,83.709 Z"
       style="fill:#fbce13;fill-opacity:1;fill-rule:nonzero;stroke:none;stroke-width:1.00063;stroke-dasharray:none"
       transform="matrix(0.35277776,0,0,-0.35277776,44.367229,41.085098)"
       clip-path="url(#clipPath6)" />
    <path
       id="path7"
       d="M 0,0 -39.584,-23.236 V -63.84 L 0,-30.904 Z"
       style="fill:#fbce13;fill-opacity:1;fill-rule:nonzero;stroke:none;stroke-width:1.00063;stroke-dasharray:none"
       transform="matrix(0.35277776,0,0,-0.35277776,15.616192,8.8990686)"
       clip-path="url(#clipPath8)" />
    <path
       id="path9"
       d="m 0,0 73.923,-43.392 41.451,24.332 V 0.838 H 0 Z"
       style="fill:#fbce13;fill-opacity:1;fill-rule:nonzero;stroke:none;stroke-width:1.00063;stroke-dasharray:none"
       transform="matrix(0.35277776,0,0,-0.35277776,1.6517672,47.711788)"
       clip-path="url(#clipPath10)" />
    <path
       id="path11"
       d="M 0,0 -29.135,-17.102 -34.844,-20.453 -76.295,-44.785 -152.591,0 v 2.241 5.709 30.231 7.428 43.982 l 41.957,24.629 5.71,3.352 26.789,15.725 1.84,1.08 3.869,-2.271 37.582,-22.062 5.709,-3.351 L 0,89.591 Z m -29.135,108.348 -5.709,3.351 -37.582,22.061 -3.869,2.271 -1.84,-1.08 -27.828,-16.335 -4.671,-2.741 -43.385,-25.467 V 44.421 36.994 7.95 2.241 -0.817 l 77.724,-45.623 41.451,24.332 5.709,3.351 30.562,17.94 v 91.225 z"
       style="fill:#fbce13;fill-opacity:1;fill-rule:nonzero;stroke:none;stroke-width:1.00063;stroke-dasharray:none"
       transform="matrix(0.35277776,0,0,-0.35277776,54.645268,48.206908)"
       clip-path="url(#clipPath12)" />
  </g>
</svg>
