<?xml version="1.0" encoding="UTF-8" standalone="no"?>
<!-- Created with Inkscape (http://www.inkscape.org/) -->

<svg
   width="54.837891mm"
   height="64.371712mm"
   viewBox="0 0 54.837889 64.371712"
   version="1.1"
   id="svg1"
   inkscape:version="1.4.2 (f4327f4, 2025-05-13)"
   sodipodi:docname="법무사신박_logo_dark.svg"
   xmlns:inkscape="http://www.inkscape.org/namespaces/inkscape"
   xmlns:sodipodi="http://sodipodi.sourceforge.net/DTD/sodipodi-0.dtd"
   xmlns="http://www.w3.org/2000/svg"
   xmlns:svg="http://www.w3.org/2000/svg">
  <sodipodi:namedview
     id="namedview1"
     bordercolor="#000000"
     borderopacity="0.25"
     inkscape:showpageshadow="2"
     inkscape:pageopacity="0.0"
     inkscape:pagecheckerboard="0"
     inkscape:deskcolor="#d1d1d1"
     inkscape:document-units="mm"
     inkscape:zoom="1.0396254"
     inkscape:cx="0.48094246"
     inkscape:cy="-278.46569"
     inkscape:window-width="2560"
     inkscape:window-height="1369"
     inkscape:window-x="1912"
     inkscape:window-y="-8"
     inkscape:window-maximized="1"
     inkscape:current-layer="layer1"
     pagecolor="#ffffff" />
  <defs
     id="defs1">
    <clipPath
       clipPathUnits="userSpaceOnUse"
       id="clipPath2">
      <path
         d="M 0,595.276 H 595.276 V 0 H 0 Z"
         transform="translate(-323.71091,-323.80351)"
         id="path2" />
    </clipPath>
    <clipPath
       clipPathUnits="userSpaceOnUse"
       id="clipPath4">
      <path
         d="M 0,595.276 H 595.276 V 0 H 0 Z"
         id="path4" />
    </clipPath>
    <clipPath
       clipPathUnits="userSpaceOnUse"
       id="clipPath6">
      <path
         d="M 0,595.276 H 595.276 V 0 H 0 Z"
         transform="translate(-339.97251,-326.65801)"
         id="path6" />
    </clipPath>
    <clipPath
       clipPathUnits="userSpaceOnUse"
       id="clipPath8">
      <path
         d="M 0,595.276 H 595.276 V 0 H 0 Z"
         transform="translate(-258.4735,-417.89401)"
         id="path8" />
    </clipPath>
    <clipPath
       clipPathUnits="userSpaceOnUse"
       id="clipPath10">
      <path
         d="M 0,595.276 H 595.276 V 0 H 0 Z"
         transform="translate(-218.88931,-307.87371)"
         id="path10" />
    </clipPath>
    <clipPath
       clipPathUnits="userSpaceOnUse"
       id="clipPath12">
      <path
         d="M 0,595.276 H 595.276 V 0 H 0 Z"
         transform="translate(-369.10711,-306.47021)"
         id="path12" />
    </clipPath>
    <clipPath
       clipPathUnits="userSpaceOnUse"
       id="clipPath14">
      <path
         d="M 0,595.276 H 595.276 V 0 H 0 Z"
         id="path14" />
    </clipPath>
    <clipPath
       clipPathUnits="userSpaceOnUse"
       id="clipPath16">
      <path
         d="M 0,595.276 H 595.276 V 0 H 0 Z"
         id="path16" />
    </clipPath>
    <clipPath
       clipPathUnits="userSpaceOnUse"
       id="clipPath18">
      <path
         d="M 0,595.276 H 595.276 V 0 H 0 Z"
         transform="translate(-287.07201,-226.38521)"
         id="path18" />
    </clipPath>
    <clipPath
       clipPathUnits="userSpaceOnUse"
       id="clipPath20">
      <path
         d="M 0,595.276 H 595.276 V 0 H 0 Z"
         transform="translate(-317.90671,-193.75801)"
         id="path20" />
    </clipPath>
    <clipPath
       clipPathUnits="userSpaceOnUse"
       id="clipPath22">
      <path
         d="M 0,595.276 H 595.276 V 0 H 0 Z"
         id="path22" />
    </clipPath>
    <clipPath
       clipPathUnits="userSpaceOnUse"
       id="clipPath25">
      <path
         d="M 0,595.276 H 595.276 V 0 H 0 Z"
         transform="translate(-323.71093,-323.80351)"
         id="path25" />
    </clipPath>
    <clipPath
       clipPathUnits="userSpaceOnUse"
       id="clipPath27">
      <path
         d="M 0,595.276 H 595.276 V 0 H 0 Z"
         transform="translate(2.5000002e-6)"
         id="path27" />
    </clipPath>
    <clipPath
       clipPathUnits="userSpaceOnUse"
       id="clipPath29">
      <path
         d="M 0,595.276 H 595.276 V 0 H 0 Z"
         transform="translate(-339.97251,-326.65801)"
         id="path29" />
    </clipPath>
    <clipPath
       clipPathUnits="userSpaceOnUse"
       id="clipPath31">
      <path
         d="M 0,595.276 H 595.276 V 0 H 0 Z"
         transform="translate(-258.47353,-417.89401)"
         id="path31" />
    </clipPath>
    <clipPath
       clipPathUnits="userSpaceOnUse"
       id="clipPath33">
      <path
         d="M 0,595.276 H 595.276 V 0 H 0 Z"
         transform="translate(-218.88928,-307.87371)"
         id="path33" />
    </clipPath>
    <clipPath
       clipPathUnits="userSpaceOnUse"
       id="clipPath35">
      <path
         d="M 0,595.276 H 595.276 V 0 H 0 Z"
         transform="translate(-369.10708,-306.47021)"
         id="path35" />
    </clipPath>
    <clipPath
       clipPathUnits="userSpaceOnUse"
       id="clipPath14-7">
      <path
         d="M 0,595.276 H 595.276 V 0 H 0 Z"
         id="path14-4" />
    </clipPath>
  </defs>
  <g
     inkscape:label="Layer 1"
     inkscape:groupmode="layer"
     id="layer1"
     transform="translate(-105.35038,-222.20361)">
    <path
       id="path24"
       d="m 0,0 c 0,-1.577 -1.278,-2.854 -2.855,-2.854 h -27.03 c -1.576,0 -2.854,1.277 -2.854,2.854 v 23.807 h -40.156 c -1.576,0 -2.854,1.279 -2.854,2.855 v 16.135 h 5.709 v -13.28 h 40.155 c 1.577,0 2.855,-1.279 2.855,-2.855 v -7.547 h 21.321 v 9.259 H 0 Z M 10.552,0 V 89.915 L -27.03,111.976 V 35.914 h -5.709 v 77.253 L -59.528,97.442 V 63.186 l 20.354,-16.935 -0.032,-0.037 h -8.85 l -14.327,11.92 -42.439,-35.312 V -9.383 H 13.407 c 1.576,0 2.855,-1.278 2.855,-2.855 V -31.639 L 43.024,-15.93 V -2.854 H 13.407 c -1.576,0 -2.855,1.277 -2.855,2.854"
       style="fill:#444340;fill-opacity:1;fill-rule:nonzero;stroke:none"
       transform="matrix(0.35277776,0,0,-0.35277776,143.67011,264.07751)"
       clip-path="url(#clipPath25)" />
    <path
       id="path26"
       d="m 296.681,326.658 h 21.321 v 10.552 h -21.321 z"
       style="fill:#444340;fill-opacity:1;fill-rule:nonzero;stroke:none"
       transform="matrix(0.35277776,0,0,-0.35277776,29.472088,378.30819)"
       clip-path="url(#clipPath27)" />
    <path
       id="path28"
       d="M 0,0 H 26.762 V 68 L 0,83.709 Z"
       style="fill:#444340;fill-opacity:1;fill-rule:nonzero;stroke:none"
       transform="matrix(0.35277776,0,0,-0.35277776,149.40683,263.07051)"
       clip-path="url(#clipPath29)" />
    <path
       id="path30"
       d="M 0,0 -39.584,-23.236 V -63.84 L 0,-30.904 Z"
       style="fill:#444340;fill-opacity:1;fill-rule:nonzero;stroke:none"
       transform="matrix(0.35277776,0,0,-0.35277776,120.6558,230.88448)"
       clip-path="url(#clipPath31)" />
    <path
       id="path32"
       d="m 0,0 73.923,-43.392 41.451,24.332 V 0.838 H 0 Z"
       style="fill:#444340;fill-opacity:1;fill-rule:nonzero;stroke:none"
       transform="matrix(0.35277776,0,0,-0.35277776,106.69136,269.69719)"
       clip-path="url(#clipPath33)" />
    <path
       id="path34"
       d="M 0,0 -29.135,-17.102 -34.844,-20.453 -76.296,-44.785 -152.591,0 v 2.241 5.709 30.231 7.428 43.982 l 41.957,24.629 5.71,3.352 26.788,15.725 1.84,1.08 3.869,-2.271 37.583,-22.062 5.709,-3.351 L 0,89.591 Z m -29.135,108.348 -5.709,3.351 -37.583,22.061 -3.869,2.271 -1.84,-1.08 -27.827,-16.335 -4.671,-2.741 -43.385,-25.467 V 44.421 36.994 7.95 2.241 -0.817 l 77.723,-45.623 41.452,24.332 5.709,3.351 30.562,17.94 v 91.225 z"
       style="fill:#444340;fill-opacity:1;fill-rule:nonzero;stroke:none"
       transform="matrix(0.35277776,0,0,-0.35277776,159.68486,270.19232)"
       clip-path="url(#clipPath35)" />
  </g>
</svg>
